<?xml version="1.0" encoding="UTF-8"?>
<!-- Generator: visioncortex VTracer 0.6.12 -->
<svg version="1.1" xmlns="http://www.w3.org/2000/svg" width="947" height="946">
<path d="M0 0 C2.70272144 0.0031625 5.40434601 -0.02041708 8.10693359 -0.0456543 C24.84223931 -0.10851169 40.35787579 2.71828695 56.58740234 6.69067383 C57.77205078 6.96911133 58.95669922 7.24754883 60.17724609 7.53442383 C67.58255712 9.3272036 74.64007954 11.54511456 81.77539062 14.20288086 C84.48594862 15.1879489 87.18623636 16.03956661 89.96240234 16.81567383 C94.51255234 18.1470682 98.7996339 19.88783565 103.15380859 21.75708008 C105.96387922 22.94607073 108.77849851 24.09472375 111.61474609 25.21801758 C144.20099002 38.17725823 174.72971164 54.79684478 203.83740234 74.31567383 C204.4797583 74.74203125 205.12211426 75.16838867 205.78393555 75.60766602 C207.91170922 77.02272561 210.03117014 78.44962008 212.14990234 79.87817383 C212.51374023 80.11890625 212.51374023 80.11890625 214.35498047 81.3371582 C215.0465625 81.80573242 215.73814453 82.27430664 216.45068359 82.75708008 C217.0775708 83.17675049 217.70445801 83.5964209 218.3503418 84.02880859 C219.83740234 85.31567383 219.83740234 85.31567383 220.83740234 88.31567383 C220.90543201 90.04362734 220.92235879 91.77402748 220.89990234 93.50317383 C220.89087891 94.40422852 220.88185547 95.3052832 220.87255859 96.23364258 C220.86675781 96.57717773 220.86675781 96.57717773 220.83740234 98.31567383 C222.77476935 98.48387934 224.7123014 98.65018478 226.64990234 98.81567383 C227.72884766 98.90848633 228.80779297 99.00129883 229.91943359 99.09692383 C232.83740234 99.31567383 232.83740234 99.31567383 235.83740234 99.31567383 C238.44686619 99.64756962 241.04724558 100.00299883 243.64990234 100.38208008 C244.43816406 100.49602615 245.22642578 100.60997223 246.03857422 100.72737122 C321.61240571 111.7401182 401.67452969 128.99053309 462.83740234 177.31567383 C463.80806641 178.06204102 464.77873047 178.8084082 465.77880859 179.57739258 C483.64232251 193.64458476 500.45416544 211.88161025 508.83740234 233.31567383 C508.99755859 236.16723633 508.99755859 236.16723633 508.83740234 238.31567383 C505.08740234 239.44067383 505.08740234 239.44067383 502.83740234 238.31567383 C500.69265591 238.24427748 498.5457288 238.2316438 496.39990234 238.25317383 C495.24619141 238.26219727 494.09248047 238.2712207 492.90380859 238.28051758 C491.89189453 238.29211914 490.87998047 238.3037207 489.83740234 238.31567383 C487.60601947 238.31567383 485.37460817 238.29053659 483.14355469 238.25219727 C452.81411825 237.73384529 423.01094533 239.30332569 392.83740234 242.31567383 C391.8785614 242.40997681 390.91972046 242.50427979 389.93182373 242.60144043 C280.4762241 253.37721308 280.4762241 253.37721308 236.83740234 268.31567383 C236.44125732 268.4488501 236.44125732 268.4488501 234.43652344 269.12280273 C207.31165504 278.3473019 182.80836234 291.63014921 161.83740234 311.31567383 C161.53640625 311.57864258 161.53640625 311.57864258 160.01318359 312.90942383 C144.05663057 327.48977065 136.76467386 348.82760785 135.52099609 369.88989258 C134.64799013 393.56376007 140.70342092 416.63314522 146.08358765 439.48504639 C149.81821651 455.36594914 153.04734379 471.08185595 154.83740234 487.31567383 C154.93690186 488.14470215 155.03640137 488.97373047 155.13891602 489.82788086 C155.84025215 496.04773741 155.9570066 502.18556183 155.89990234 508.44067383 C155.89539063 509.3971582 155.89087891 510.35364258 155.88623047 511.33911133 C155.87460252 513.66470141 155.85826336 515.99015143 155.83740234 518.31567383 C154.84740234 518.31567383 153.85740234 518.31567383 152.83740234 518.31567383 C152.60666016 517.34629883 152.37591797 516.37692383 152.13818359 515.37817383 C149.76362795 505.55310937 147.04585164 495.901063 143.83740234 486.31567383 C143.73065186 485.99099121 143.73065186 485.99099121 143.19042969 484.34790039 C138.98791744 471.73722512 133.24659465 458.72444606 124.83740234 448.31567383 C122.87390877 452.24266098 123.07505064 457.21981896 122.67529297 461.57543945 C122.24235236 465.87316694 121.53865282 469.31048774 119.83740234 473.31567383 C120.16740234 473.97567383 120.49740234 474.63567383 120.83740234 475.31567383 C120.54036562 477.61919738 120.15405685 479.91139142 119.72802734 482.19458008 C119.60055115 482.88067856 119.47307495 483.56677704 119.34173584 484.27366638 C119.06913522 485.73107173 118.79317909 487.18785277 118.51416016 488.64404297 C118.09403536 490.84344918 117.68758018 493.0450549 117.28271484 495.24731445 C114.24088578 511.50870695 114.24088578 511.50870695 110.83740234 518.31567383 C110.72525391 519.45262695 110.61310547 520.58958008 110.49755859 521.76098633 C109.86627014 527.16403701 108.09486747 532.08654177 106.27490234 537.19067383 C105.91992676 538.19646484 105.56495117 539.20225586 105.19921875 540.23852539 C100.46156852 553.43044877 94.88903304 566.18900588 87.83740234 578.31567383 C87.17740234 578.31567383 86.51740234 578.31567383 85.83740234 578.31567383 C85.91990234 579.05817383 86.00240234 579.80067383 86.08740234 580.56567383 C85.7663505 584.0972441 84.48474617 585.08197747 81.83740234 587.31567383 C80.65050812 583.75499116 81.09275203 582.91646217 82.34912109 579.47583008 C82.69313965 578.50540771 83.0371582 577.53498535 83.39160156 576.53515625 C83.76559082 575.49335205 84.13958008 574.45154785 84.52490234 573.37817383 C96.65600549 538.23481537 96.44990759 503.18532749 91.19287109 466.67114258 C87.23845565 438.59194806 88.69540596 410.77829183 101.83740234 385.31567383 C75.02343452 403.04016103 57.61782834 424.19329817 48.69677734 455.57348633 C47.93491644 458.00451522 47.01422425 460.06813691 45.83740234 462.31567383 C45.50740234 463.30567383 45.17740234 464.29567383 44.83740234 465.31567383 C44.17740234 464.98567383 43.51740234 464.65567383 42.83740234 464.31567383 C42.02099609 461.65551758 42.02099609 461.65551758 41.27490234 458.25317383 C41.02611328 457.14844727 40.77732422 456.0437207 40.52099609 454.90551758 C36.86997333 435.73243231 36.64934551 412.20098676 41.83740234 393.31567383 C41.93408203 392.96045654 41.93408203 392.96045654 42.42333984 391.1628418 C50.25896099 363.21216546 67.61951201 339.38004598 91.83740234 323.31567383 C56.36223283 333.47858 21.20077529 351.05004791 -4.16259766 378.31567383 C-4.82259766 377.98567383 -5.48259766 377.65567383 -6.16259766 377.31567383 C-0.73761955 362.91861655 9.45766068 350.75908247 19.76708984 339.56958008 C21.61055392 337.562639 23.38519328 335.5165514 25.14990234 333.44067383 C31.7339726 325.89196072 38.93754369 318.79840223 46.56005859 312.30395508 C49.81926318 309.45844027 52.98149907 306.51157007 56.14990234 303.56567383 C56.76140137 302.99792236 57.37290039 302.4301709 58.00292969 301.84521484 C60.65701218 299.37408367 63.28407009 296.89140791 65.83740234 294.31567383 C65.23718262 294.51612305 64.63696289 294.71657227 64.01855469 294.9230957 C41.45310692 302.41236191 18.39094421 309.70362907 -5.16259766 313.31567383 C-5.16259766 311.99567383 -5.16259766 310.67567383 -5.16259766 309.31567383 C-4.64576416 309.09016846 -4.12893066 308.86466309 -3.59643555 308.63232422 C44.02221534 287.76466105 85.13904496 257.6799315 111.83740234 212.31567383 C111.30783936 212.1193335 110.77827637 211.92299316 110.23266602 211.72070312 C107.82683331 210.82329562 105.425914 209.91339716 103.02490234 209.00317383 C102.19152344 208.69444336 101.35814453 208.38571289 100.49951172 208.06762695 C99.69707031 207.76147461 98.89462891 207.45532227 98.06787109 207.13989258 C97.32947998 206.86234131 96.59108887 206.58479004 95.83032227 206.29882812 C93.70434802 205.250035 92.40605465 204.07525477 90.83740234 202.31567383 C91.09900146 202.17991943 91.09900146 202.17991943 92.42285156 201.49291992 C117.80995305 188.29386144 117.80995305 188.29386144 127.70849609 179.95239258 C129.83740234 178.31567383 129.83740234 178.31567383 132.83740234 177.31567383 C132.98177734 177.02692383 132.98177734 177.02692383 133.71240234 175.56567383 C135.69284993 171.60477865 138.68947585 168.95637699 142.52490234 166.81567383 C145.37063992 164.96978999 145.72591661 163.44204466 146.83740234 160.31567383 C146.30630859 160.5812207 146.30630859 160.5812207 143.61865234 161.92504883 C135.11865234 166.17504883 135.11865234 166.17504883 132.98193359 167.23950195 C131.5376374 167.96428083 130.09757111 168.69754363 128.66162109 169.4387207 C127.96681641 169.79514648 127.27201172 170.15157227 126.55615234 170.51879883 C125.93675781 170.84009766 125.31736328 171.16139648 124.67919922 171.49243164 C122.83740234 172.31567383 122.83740234 172.31567383 120.82788086 172.81518555 C118.05743264 173.51179034 115.69077703 174.90527339 113.16113281 176.20141602 C108.86319919 178.26232892 104.38068026 179.8274711 99.89990234 181.44067383 C98.96210937 181.78743164 98.02431641 182.13418945 97.05810547 182.49145508 C77.90395967 189.43965807 56.91567744 190.23177833 38.01318359 182.10083008 C22.26945683 174.35249094 9.55651829 160.50263498 2.83740234 144.31567383 C2.83740234 143.32567383 2.83740234 142.33567383 2.83740234 141.31567383 C1.97759766 141.03723633 1.11779297 140.75879883 0.23193359 140.47192383 C-3.05287023 139.35304934 -6.25420608 138.10560354 -9.47509766 136.81567383 C-19.22009724 133.06505887 -28.83140131 131.69708557 -39.16259766 130.31567383 C-39.16259766 129.32567383 -39.16259766 128.33567383 -39.16259766 127.31567383 C-6.5024691 111.21561045 26.37894909 101.94099069 62.83740234 109.31567383 C63.57216797 109.46214355 64.30693359 109.60861328 65.06396484 109.75952148 C78.09368206 112.4928008 90.51136739 117.32266744 102.92626953 122.03808594 C115.09143437 126.62902726 126.64245619 129.89125113 139.77490234 129.75317383 C140.81759277 129.74415039 141.8602832 129.73512695 142.93457031 129.72583008 C158.00800468 129.38841759 171.49629898 124.52915425 183.05615234 114.62426758 C185.83740234 112.31567383 185.83740234 112.31567383 188.83740234 111.31567383 C189.16740234 110.32567383 189.49740234 109.33567383 189.83740234 108.31567383 C190.43552734 108.02692383 191.03365234 107.73817383 191.64990234 107.44067383 C193.83740234 106.31567383 193.83740234 106.31567383 195.58740234 103.87817383 C198.92512875 100.07687431 202.88484464 98.57145096 207.91162109 98.13598633 C209.55462676 98.12932099 211.1975828 98.21318511 212.83740234 98.31567383 C212.82708984 97.75879883 212.82708984 97.75879883 212.77490234 94.94067383 C212.83740234 91.31567383 212.83740234 91.31567383 213.83740234 89.31567383 C203.53203486 77.94423385 188.73768665 70.3273051 175.83740234 62.31567383 C175.10247559 61.85902344 174.36754883 61.40237305 173.61035156 60.93188477 C152.97929767 48.21826495 131.24888896 37.61102826 108.80273438 28.52612305 C105.69569644 27.25782945 102.60945661 25.94487965 99.52099609 24.63208008 C95.33538296 22.88776371 91.23766576 21.44085534 86.83740234 20.31567383 C83.25093661 19.32689523 79.66973184 18.31932231 76.08740234 17.31567383 C75.14251953 17.0552832 74.19763672 16.79489258 73.22412109 16.52661133 C72.31791016 16.27137695 71.41169922 16.01614258 70.47802734 15.75317383 C69.65850586 15.52500977 68.83898437 15.2968457 67.99462891 15.06176758 C65.83740234 14.31567383 65.83740234 14.31567383 62.83740234 12.31567383 C60.77490234 11.62817383 60.77490234 11.62817383 58.83740234 11.31567383 C58.17740234 11.64567383 57.51740234 11.97567383 56.83740234 12.31567383 C56.24958984 12.01661133 55.66177734 11.71754883 55.05615234 11.40942383 C52.36484769 10.08272435 50.33174245 9.97327068 47.33740234 9.81567383 C42.51966367 9.51523578 37.74041449 9.10824488 32.94189453 8.5847168 C20.92591321 7.28089527 8.91381688 6.71997404 -3.16259766 6.31567383 C-3.49259766 5.65567383 -3.82259766 4.99567383 -4.16259766 4.31567383 C-7.16259766 5.31567383 -7.16259766 5.31567383 -9.16259766 7.31567383 C-12.05395508 7.83056641 -12.05395508 7.83056641 -15.76806641 8.21020508 C-17.14628846 8.35917366 -18.52446033 8.50860709 -19.90258789 8.65844727 C-20.62791718 8.73446167 -21.35324646 8.81047607 -22.10055542 8.88879395 C-71.65948153 14.16249352 -119.12817403 31.55737073 -161.16259766 58.31567383 C-162.22994141 58.98856445 -163.29728516 59.66145508 -164.39697266 60.35473633 C-173.14283658 66.03229993 -181.50960405 72.30720507 -189.83984375 78.57397461 C-191.44112845 79.77468567 -193.05426184 80.95970162 -194.67675781 82.1315918 C-195.48290527 82.7272998 -196.28905273 83.32300781 -197.11962891 83.93676758 C-197.48366821 84.20130737 -197.48366821 84.20130737 -199.32592773 85.54003906 C-201.48159465 87.62407009 -202.09856113 89.54769668 -203.16259766 92.31567383 C-205.78759766 93.62817383 -205.78759766 93.62817383 -208.16259766 94.31567383 C-208.16259766 95.30567383 -208.16259766 96.29567383 -208.16259766 97.31567383 C-213.79703155 104.24394069 -221.16964001 109.83143303 -228.16259766 115.31567383 C-228.51515625 115.60571289 -228.51515625 115.60571289 -230.29931641 117.07348633 C-232.16259766 118.31567383 -232.16259766 118.31567383 -235.16259766 118.31567383 C-236.19083245 119.96507099 -237.18424581 121.63620801 -238.16259766 123.31567383 C-240.0264407 125.31438251 -241.88895539 127.23282472 -243.85009766 129.12817383 C-244.36121094 129.63026367 -244.87232422 130.13235352 -245.39892578 130.6496582 C-246.64894128 131.87630892 -247.90514445 133.09664874 -249.16259766 134.31567383 C-249.82259766 133.98567383 -250.48259766 133.65567383 -251.16259766 133.31567383 C-250.44973649 129.15291666 -248.51610211 127.92190929 -245.28759766 125.31176758 C-242.72520033 122.9048098 -240.80137051 120.27801291 -238.72509766 117.44067383 C-234.48508775 111.68170225 -229.73058972 106.60594722 -224.66259766 101.56567383 C-223.95562744 100.86200684 -223.24865723 100.15833984 -222.52026367 99.43334961 C-217.45721748 94.46298374 -217.45721748 94.46298374 -215.16259766 93.31567383 C-214.70884766 92.55254883 -214.25509766 91.78942383 -213.78759766 91.00317383 C-212.14916495 88.2934582 -210.57914269 86.3546337 -208.16259766 84.31567383 C-207.17259766 84.31567383 -206.18259766 84.31567383 -205.16259766 84.31567383 C-205.13166016 84.02692383 -205.13166016 84.02692383 -204.97509766 82.56567383 C-203.83050418 79.39603035 -201.83699461 78.32147154 -199.16259766 76.31567383 C-198.40978516 75.51000977 -197.65697266 74.7043457 -196.88134766 73.87426758 C-193.99025517 71.1534837 -191.5487874 69.86149362 -187.91259766 68.31567383 C-178.98100339 64.35939717 -171.05435841 59.62822553 -162.96533203 54.1953125 C-145.61945379 42.55542949 -145.61945379 42.55542949 -138.91259766 40.50317383 C-137.67509766 40.11129883 -136.43759766 39.71942383 -135.16259766 39.31567383 C-134.83259766 38.32567383 -134.50259766 37.33567383 -134.16259766 36.31567383 C-133.45393555 36.1994165 -132.74527344 36.08315918 -132.01513672 35.96337891 C-128.96350778 35.27046795 -126.37848974 34.22712885 -123.52197266 32.95239258 C-122.45076172 32.47737305 -121.37955078 32.00235352 -120.27587891 31.51293945 C-119.16599609 31.0147168 -118.05611328 30.51649414 -116.91259766 30.00317383 C-115.81818359 29.51655273 -114.72376953 29.02993164 -113.59619141 28.52856445 C-110.44968331 27.12865097 -107.3060891 25.7223445 -104.16259766 24.31567383 C-102.49749234 23.57550696 -100.83215735 22.83585637 -99.16650391 22.09692383 C-96.92521189 21.10178609 -94.68807989 20.09998394 -92.45556641 19.08520508 C-91.76076172 18.76938477 -91.06595703 18.45356445 -90.35009766 18.12817383 C-89.64240234 17.80461914 -88.93470703 17.48106445 -88.20556641 17.14770508 C-86.16259766 16.31567383 -86.16259766 16.31567383 -84.28295898 15.84960938 C-82.19554094 15.32396939 -80.21839975 14.66974777 -78.19384766 13.94067383 C-77.45779297 13.67770508 -76.72173828 13.41473633 -75.96337891 13.14379883 C-75.20412109 12.87051758 -74.44486328 12.59723633 -73.66259766 12.31567383 C-72.15281114 11.77225321 -70.64241275 11.23052896 -69.13134766 10.69067383 C-68.46554687 10.4509082 -67.79974609 10.21114258 -67.11376953 9.96411133 C-65.16259766 9.31567383 -65.16259766 9.31567383 -63.16455078 8.85473633 C-61.16259766 8.31567383 -61.16259766 8.31567383 -59.21630859 7.31567383 C-56.89500756 6.18537794 -54.84572319 5.75225499 -52.30322266 5.31567383 C-51.35060547 5.15067383 -50.39798828 4.98567383 -49.41650391 4.81567383 C-48.42521484 4.65067383 -47.43392578 4.48567383 -46.41259766 4.31567383 C-45.46771484 4.15067383 -44.52283203 3.98567383 -43.54931641 3.81567383 C-40.42471595 3.28311876 -37.29621567 2.79230903 -34.16259766 2.31567383 C-32.97456543 2.13109619 -31.7865332 1.94651855 -30.5625 1.75634766 C-20.36020713 0.31316256 -10.29754927 -0.02508878 0 0 Z M-17.16259766 3.31567383 C-17.16259766 3.64567383 -17.16259766 3.97567383 -17.16259766 4.31567383 C-14.85259766 4.31567383 -12.54259766 4.31567383 -10.16259766 4.31567383 C-10.16259766 3.98567383 -10.16259766 3.65567383 -10.16259766 3.31567383 C-12.47259766 3.31567383 -14.78259766 3.31567383 -17.16259766 3.31567383 Z M-60.16259766 10.31567383 C-56.16259766 11.31567383 -56.16259766 11.31567383 -56.16259766 11.31567383 Z M-217.16259766 100.31567383 C-217.49259766 100.97567383 -217.82259766 101.63567383 -218.16259766 102.31567383 C-217.50259766 102.31567383 -216.84259766 102.31567383 -216.16259766 102.31567383 C-216.49259766 101.65567383 -216.82259766 100.99567383 -217.16259766 100.31567383 Z M197.83740234 115.31567383 C195.96003898 118.08899131 194.38671994 120.97409907 192.83740234 123.94067383 C192.40935303 124.73119141 191.98130371 125.52170898 191.5402832 126.33618164 C189.65484918 129.82885349 187.81521262 133.34171182 186.02880859 136.88598633 C179.90773629 148.83455433 171.77774529 158.5958521 162.39990234 168.12817383 C161.80878662 168.73330811 161.2176709 169.33844238 160.60864258 169.96191406 C160.04604736 170.5182251 159.48345215 171.07453613 158.90380859 171.64770508 C158.40824463 172.13988525 157.91268066 172.63206543 157.40209961 173.13916016 C155.83740234 174.31567383 155.83740234 174.31567383 153.70825195 174.79492188 C153.09087158 174.96677002 152.47349121 175.13861816 151.83740234 175.31567383 C151.50740234 176.30567383 151.17740234 177.29567383 150.83740234 178.31567383 C148.30211095 180.60594324 145.44684038 182.4830497 142.64990234 184.44067383 C142.27188477 184.71588867 142.27188477 184.71588867 140.35888672 186.10864258 C136.21801247 189.03203515 133.05442663 191.03277299 127.83740234 191.31567383 C127.50740234 192.30567383 127.17740234 193.29567383 126.83740234 194.31567383 C124.27490234 195.50317383 124.27490234 195.50317383 121.83740234 196.31567383 C128.5766512 200.8085064 137.25313764 200.65683548 145.13037109 200.58520508 C146.08082809 200.58019485 147.0312851 200.57518463 148.01054382 200.57002258 C157.21474916 200.44250631 166.26160557 199.50018734 175.38635254 198.34973145 C180.24238777 197.74076974 185.10411895 197.1816281 189.96630859 196.62426758 C190.95424408 196.51079987 191.94217957 196.39733215 192.96005249 196.28042603 C203.15148901 195.13145642 213.35865696 194.29937924 223.58740234 193.56567383 C224.38352936 193.5070517 225.17965637 193.44842957 225.99990845 193.38803101 C249.44932374 191.67684674 272.89213088 191.10733053 296.39990234 191.12817383 C297.6697699 191.12877808 298.93963745 191.12938232 300.24798584 191.13000488 C319.52269881 191.15483056 338.64440859 191.41804652 357.83740234 193.31567383 C358.45728027 193.37480957 358.45728027 193.37480957 361.59423828 193.67407227 C395.02711776 196.99790774 427.9557228 203.71125252 459.83740234 214.31567383 C460.82160156 214.63955078 461.80580078 214.96342773 462.81982422 215.29711914 C475.9939021 219.6625752 489.20738617 224.28494988 501.16552734 231.43286133 C502.83740234 232.31567383 502.83740234 232.31567383 504.83740234 232.31567383 C495.67844741 200.47288231 455.66986463 174.47669635 428.83740234 159.31567383 C428.0470459 158.86853027 427.25668945 158.42138672 426.44238281 157.96069336 C366.06074331 124.2326558 294.21308486 109.28326757 225.83740234 103.31567383 C224.78681641 103.21899414 223.73623047 103.12231445 222.65380859 103.02270508 C212.03065572 102.47755021 204.56191032 107.4572481 197.83740234 115.31567383 Z M11.89990234 122.92114258 C11.54927734 123.38133789 11.19865234 123.8415332 10.83740234 124.31567383 C11.98080078 124.66500977 13.12419922 125.0143457 14.30224609 125.37426758 C15.79318223 125.83373846 17.2840649 126.29338284 18.77490234 126.75317383 C19.52964844 126.98327148 20.28439453 127.21336914 21.06201172 127.45043945 C26.72412109 129.20239258 26.72412109 129.20239258 27.83740234 130.31567383 C27.99452547 132.0036858 28.14765328 133.69217238 28.27978516 135.38232422 C29.29566757 147.18041311 33.48841205 159.41152749 42.83740234 167.31567383 C48.74531878 171.56451784 54.82528054 174.428878 61.83740234 176.31567383 C62.64177734 176.54254883 63.44615234 176.76942383 64.27490234 177.00317383 C76.26535175 178.46542376 87.26940192 175.69011292 97.48193359 169.15942383 C102.44083126 165.27783229 106.91488711 160.41962301 110.23583984 155.05786133 C112.50410118 152.59043558 114.23795963 152.72035349 117.52490234 152.56567383 C118.51876953 152.50895508 119.51263672 152.45223633 120.53662109 152.39379883 C120.91625 152.3809082 120.91625 152.3809082 122.83740234 152.31567383 C120.53619959 149.75408038 118.25152732 148.34680519 115.16943359 146.83520508 C114.27675781 146.39370117 113.38408203 145.95219727 112.46435547 145.49731445 C111.9999707 145.27140625 111.9999707 145.27140625 109.64990234 144.12817383 C108.70953125 143.66475586 107.76916016 143.20133789 106.80029297 142.72387695 C104.48194059 141.58235319 102.16097169 140.44653044 99.83740234 139.31567383 C97.83740234 141.31567383 97.83740234 141.31567383 95.83740234 144.31567383 C95.34240234 144.95504883 94.84740234 145.59442383 94.33740234 146.25317383 C92.83740234 148.31567383 92.83740234 148.31567383 92.08740234 150.25317383 C88.98029768 155.37989653 83.41230803 157.75442391 77.83740234 159.31567383 C69.71052159 160.40064892 63.23807575 159.55316997 56.22021484 155.22583008 C50.94184562 150.99448163 47.16694106 144.9633674 45.83740234 138.31567383 C45.47063311 131.8922559 45.87866514 125.6673078 46.83740234 119.31567383 C36.87836599 117.54517848 20.15883602 116.07755036 11.89990234 122.92114258 Z M57.83740234 123.31567383 C54.39212417 127.47871828 54.32934242 131.41128161 54.48974609 136.59301758 C55.17706161 141.97570202 57.4220209 145.03509061 61.46240234 148.69067383 C66.88681527 151.3024282 71.75920261 152.3040067 77.59912109 150.42895508 C82.61078769 148.10968747 85.22974134 146.29622249 87.83740234 141.31567383 C86.93376953 141.13391602 86.03013672 140.9521582 85.09912109 140.76489258 C83.91962891 140.51352539 82.74013672 140.2621582 81.52490234 140.00317383 C80.35314453 139.75954102 79.18138672 139.5159082 77.97412109 139.26489258 C73.56407175 137.93034465 73.56407175 137.93034465 71.83740234 135.31567383 C71.44661678 132.59059585 71.70123281 130.08445426 71.83740234 127.31567383 C67.04258166 124.55865194 63.25131103 123.78239009 57.83740234 123.31567383 Z M166.58740234 210.31567383 C165.5291626 210.45739014 164.47092285 210.59910645 163.38061523 210.74511719 C154.27255162 212.09948988 146.28032287 214.8314166 138.83740234 220.31567383 C139.99356529 227.25265149 143.30788638 231.07248031 148.83740234 235.31567383 C168.06488906 247.05255158 189.28220206 248.758255 211.27490234 248.75317383 C211.77452484 248.75370758 211.77452484 248.75370758 214.30291748 248.75640869 C241.82114271 248.71508601 269.1779108 246.15983466 296.56213379 243.69897461 C303.89002378 243.04085233 311.21925447 242.39782079 318.54833984 241.75317383 C319.2845714 241.68840158 320.02080296 241.62362934 320.77934456 241.5568943 C325.22771332 241.16562186 329.67613919 240.77500467 334.12460709 240.38486099 C336.33386063 240.19098464 338.54307585 239.99667572 340.75228882 239.80233765 C377.47028114 236.5762115 414.16112327 233.93761988 451.02783203 233.37426758 C454.26942887 233.32440964 457.51023749 233.25946535 460.75146484 233.19067383 C473.84048922 232.98335032 486.8120051 234.10640238 499.83740234 235.31567383 C462.73575994 198.21403142 353.35116591 200.30829104 305.71240234 200.19067383 C259.22436627 200.3400008 212.62623061 203.87351191 166.58740234 210.31567383 Z " fill="#ffffff" transform="translate(429.16259765625,126.684326171875)"/>
<path d="M0 0 C-3.48524681 3.54896247 -7.08968817 6.88429736 -10.8125 10.1875 C-16.16559881 15.03179591 -20.72482177 20.16596857 -25 26 C-25.28488281 26.37705078 -25.28488281 26.37705078 -26.7265625 28.28515625 C-39.06296359 45.15617052 -47.41333386 64.28825556 -54 84 C-50.06375084 81.78347134 -46.24324111 79.53064188 -42.5 77 C-33.0979213 70.93970386 -22.94870311 66.08784678 -13 61 C-12.34 61.66 -11.68 62.32 -11 63 C-11.64324219 63.65742188 -12.28648437 64.31484375 -12.94921875 64.9921875 C-35.14482651 88.35931807 -50.24682161 117.68465002 -66.03710938 145.54199219 C-82.7215826 174.93488756 -82.7215826 174.93488756 -91.62792969 188.84619141 C-93.25717359 191.40369848 -94.86663501 193.97326007 -96.4765625 196.54296875 C-97.71323606 198.50800487 -98.95021389 200.47284952 -100.1875 202.4375 C-100.75799072 203.34983398 -101.32848145 204.26216797 -101.91625977 205.20214844 C-105.19340435 210.3800274 -108.67107581 215.25833091 -112.48413086 220.05444336 C-114.23138356 222.29697142 -115.73259901 224.62136361 -117.1875 227.0625 C-121.97397467 234.72942588 -127.49669409 241.84044438 -133 249 C-133.46986328 249.61311035 -133.93972656 250.2262207 -134.42382812 250.85791016 C-141.32033351 259.83170575 -148.56243524 268.4712203 -156 277 C-156.34095703 277.391875 -156.34095703 277.391875 -158.06640625 279.375 C-159.70668008 281.25379239 -161.35253421 283.12751449 -163 285 C-164.31286734 286.4996785 -165.62537014 287.99967621 -166.9375 289.5 C-167.95833333 290.66666667 -168.97916667 291.83333333 -170 293 C-170.66 292.34 -171.32 291.68 -172 291 C-171.56171875 290.30519531 -171.1234375 289.61039063 -170.671875 288.89453125 C-159.56169749 271.07760025 -149.54573756 252.69537162 -140 234 C-139.81993408 233.6481665 -139.81993408 233.6481665 -138.90869141 231.86767578 C-136.94838784 228.02594823 -135.02674894 224.16664912 -133.12841797 220.29394531 C-132.31986064 218.65024029 -131.50573788 217.00926842 -130.68798828 215.37011719 C-120.28015884 194.48358442 -111.19328062 173.07169057 -102.09747314 151.58996582 C-71.22065594 78.72266915 -71.22065594 78.72266915 -58.4375 56.8125 C-57.81746094 55.74644531 -57.19742188 54.68039062 -56.55859375 53.58203125 C-55 51 -55 51 -54 50 C-62.40966281 50.95822245 -69.96140602 52.46330358 -78 55.11328125 C-82.02224432 56.30214773 -85.82375132 56.7168645 -90 57 C-90.33 57.99 -90.66 58.98 -91 60 C-93.06640625 60.94921875 -93.06640625 60.94921875 -95.5625 61.6875 C-96.38878906 61.93886719 -97.21507812 62.19023437 -98.06640625 62.44921875 C-98.70449219 62.63097656 -99.34257812 62.81273437 -100 63 C-100.33 62.34 -100.66 61.68 -101 61 C-96.15228795 54.78121788 -91.11501362 48.90542003 -85.5625 43.3125 C-85.04268555 42.78366211 -84.52287109 42.25482422 -83.98730469 41.70996094 C-80.24780192 38 -80.24780192 38 -78 38 C-77.67 37.01 -77.34 36.02 -77 35 C-70.2423085 28.08907286 -61.80224225 24.07272484 -53.18603516 20.03417969 C-51.0204076 19.00965452 -48.87471494 17.9512698 -46.73046875 16.8828125 C-37.64137082 12.39948648 -28.37274731 8.39701416 -18.96447754 4.63589478 C-17.70243673 4.1310096 -16.44175339 3.62271715 -15.18249512 3.1109314 C-13.4089893 2.3927798 -11.62842667 1.69213128 -9.84765625 0.9921875 C-8.81648682 0.58339355 -7.78531738 0.17459961 -6.72290039 -0.24658203 C-3.93683472 -1.01747763 -2.66038918 -1.01647132 0 0 Z " fill="#ffffff" transform="translate(237,245)"/>
<path d="M0 0 C0.40347656 0.08471558 0.40347656 0.08471558 2.4453125 0.51342773 C8.93574982 1.98688182 15.07234051 4.0995558 21.25 6.5625 C22.10432617 6.9028125 22.95865234 7.243125 23.83886719 7.59375 C27.63336752 9.17363916 30.45487012 10.41170903 33.25 13.5 C30.34960901 16.40039099 22.51151041 15.30664053 18.4375 15.5625 C17.74981537 15.606026 17.06213074 15.649552 16.35360718 15.69439697 C6.0936276 16.32959311 -4.15785209 16.76007902 -14.4375 16.875 C-15.61739502 16.90086182 -16.79729004 16.92672363 -18.01293945 16.95336914 C-19.10566162 16.9558667 -20.19838379 16.95836426 -21.32421875 16.9609375 C-22.27901123 16.96915527 -23.23380371 16.97737305 -24.2175293 16.98583984 C-27.50484282 16.35518777 -28.71342373 15.10387188 -30.75 12.5 C-30.75 9.34584799 -29.83719786 7.64896301 -28.25 4.9375 C-20.11035744 -2.99865149 -10.36411936 -2.1771238 0 0 Z " fill="#ffffff" transform="translate(701.75,262.5)"/>
<path d="M0 0 C0.33 0.33 0.33 0.33 2 2 C0.9584375 2.59425781 -0.083125 3.18851563 -1.15625 3.80078125 C-22.73324594 16.22590084 -42.00200652 30.79749794 -60 48 C-60.74765625 48.70640625 -61.4953125 49.4128125 -62.265625 50.140625 C-66.7945274 54.52688481 -70.78797146 59.25199678 -74.7265625 64.171875 C-76.17511102 65.97384945 -77.64694922 67.75751872 -79.1484375 69.515625 C-90.18086912 82.499642 -98.89263382 97.06713046 -107 112 C-107.95655376 113.70933041 -108.91455247 115.4178544 -109.875 117.125 C-111.6763859 120.37248116 -113.37323212 123.66084487 -115 127 C-115.66 126.67 -116.32 126.34 -117 126 C-114.75043613 91.81166559 -100.57136572 60.24599562 -75.625 36.75 C-54.24441823 18.07963282 -27.31349631 6.87646122 0 0 Z " fill="#ffffff" transform="translate(167,527)"/>
<path d="M0 0 C0.66 0.66 1.32 1.32 2 2 C1.01 2 0.02 2 -1 2 C-0.67 1.34 -0.34 0.68 0 0 Z " fill="#ffffff" transform="translate(297,590)"/>
<path d="M0 0 C0.66 0.33 1.32 0.66 2 1 C-6.18342855 19.26507507 -27.91276594 37.35167971 -43 50 C-43.44601563 50.39058594 -43.44601563 50.39058594 -45.703125 52.3671875 C-65.41944831 69.5457347 -87.42524518 83.88467403 -110 97 C-110.73138184 97.42539062 -111.46276367 97.85078125 -112.21630859 98.2890625 C-123.14815265 104.62767574 -134.1809325 110.78026721 -145.25 116.875 C-146.49593148 117.56119703 -147.74186246 118.24739495 -148.98779297 118.93359375 C-149.60419647 119.27305023 -150.22059998 119.61250671 -150.85568237 119.96224976 C-191.33872203 142.25713217 -231.41697822 165.27169267 -267 195 C-270.3232671 197.67932781 -273.66025804 200.34124664 -277 203 C-277.66 202.67 -278.32 202.34 -279 202 C-278.43854329 197.74045688 -277.43471068 194.31349042 -275.59375 190.4375 C-275.10173096 189.40004639 -274.60971191 188.36259277 -274.1027832 187.29370117 C-273.57386475 186.20677979 -273.04494629 185.1198584 -272.5 184 C-271.95754639 182.88020752 -271.41509277 181.76041504 -270.85620117 180.60668945 C-266.76592838 172.29175006 -262.39045469 164.5387529 -257 157 C-256.28457031 155.98292969 -255.56914062 154.96585938 -254.83203125 153.91796875 C-250.14926924 147.46155883 -245.03778463 141.58396439 -239.578125 135.7890625 C-237.77806966 133.8417299 -236.07922942 131.90772679 -234.40625 129.859375 C-232.44238757 127.52569432 -230.57093733 125.57895151 -228.25 123.625 C-226.16980325 121.85951936 -224.10758813 120.10089177 -222.1171875 118.234375 C-188.8217982 87.15867832 -143.78525701 69.51322783 -102.23535156 52.63232422 C-88.37605476 46.99833083 -74.60770402 41.22274456 -61 35 C-60.10458496 34.59410645 -59.20916992 34.18821289 -58.28662109 33.77001953 C-38.75784187 24.87923958 -20.46557325 14.4626469 -3 2 C-2.505 1.67 -2.505 1.67 0 0 Z " fill="#ffffff" transform="translate(293,594)"/>
<path d="M0 0 C0.99 0.99 1.98 1.98 3 3 C-5.93940848 21.28721633 -15.89788856 37.2282919 -30 52 C-30.74121094 52.7940625 -31.48242188 53.588125 -32.24609375 54.40625 C-38.27256543 60.68704984 -44.97436141 65.90800514 -52 71 C-53.0621875 71.77988281 -54.124375 72.55976562 -55.21875 73.36328125 C-70.486335 84.22770371 -87.83165895 92.02431945 -104.640625 100.1796875 C-105.10721527 100.40633842 -105.10721527 100.40633842 -107.46844482 101.55332947 C-112.10974704 103.80634028 -116.75513339 106.05004171 -121.40917969 108.27661133 C-131.17551949 112.97704551 -140.67039472 117.93520467 -149.96166992 123.52555847 C-150.69748291 123.96547623 -151.4332959 124.40539398 -152.19140625 124.85864258 C-152.83279541 125.24860916 -153.47418457 125.63857574 -154.13500977 126.0403595 C-156.07546735 127.03883212 -157.8695381 127.55725462 -160 128 C-160 118.56795426 -147.31280747 108.56897361 -141 102 C-140.46068848 101.43345703 -139.92137695 100.86691406 -139.36572266 100.28320312 C-131.63127305 92.19342919 -123.60074527 84.9243888 -114.63330078 78.22753906 C-113.11403241 77.08570329 -111.61656078 75.91502324 -110.12109375 74.7421875 C-95.07204908 63.06295673 -78.38800558 53.83847377 -61.79833984 44.56835938 C-39.35513459 31.98982591 -18.00432389 18.60446802 0 0 Z " fill="#ffffff" transform="translate(367,635)"/>
</svg>
